<mxfile host="app.diagrams.net" modified="2024-02-02T10:39:44.017Z" agent="Mozilla/5.0 (Windows NT 10.0; Win64; x64) AppleWebKit/537.36 (KHTML, like Gecko) Chrome/121.0.0.0 Safari/537.36" etag="laPB1vEP2F4mxeTJix3Y" version="23.0.2" type="github">
  <diagram name="第 1 页" id="9Wy57vLdWNZvY6cCVtTI">
    <mxGraphModel dx="2648" dy="1402" grid="1" gridSize="10" guides="1" tooltips="1" connect="1" arrows="1" fold="1" page="1" pageScale="1" pageWidth="827" pageHeight="1169" math="0" shadow="0">
      <root>
        <mxCell id="0" />
        <mxCell id="1" parent="0" />
        <mxCell id="MBymmYlp3hh2KS27ztZ8-3" value="" style="edgeStyle=orthogonalEdgeStyle;rounded=0;orthogonalLoop=1;jettySize=auto;html=1;" parent="1" source="MBymmYlp3hh2KS27ztZ8-1" target="MBymmYlp3hh2KS27ztZ8-2" edge="1">
          <mxGeometry relative="1" as="geometry" />
        </mxCell>
        <mxCell id="MBymmYlp3hh2KS27ztZ8-12" style="edgeStyle=orthogonalEdgeStyle;rounded=0;orthogonalLoop=1;jettySize=auto;html=1;exitX=1;exitY=0.5;exitDx=0;exitDy=0;entryX=0;entryY=0.5;entryDx=0;entryDy=0;curved=1;" parent="1" source="MBymmYlp3hh2KS27ztZ8-1" target="MBymmYlp3hh2KS27ztZ8-8" edge="1">
          <mxGeometry relative="1" as="geometry" />
        </mxCell>
        <mxCell id="MBymmYlp3hh2KS27ztZ8-1" value="s" style="rounded=1;whiteSpace=wrap;html=1;fontFamily=Times New Roman;fontSize=24;fontStyle=2" parent="1" vertex="1">
          <mxGeometry x="200" y="160" width="80" height="40" as="geometry" />
        </mxCell>
        <mxCell id="MBymmYlp3hh2KS27ztZ8-5" value="" style="edgeStyle=orthogonalEdgeStyle;rounded=0;orthogonalLoop=1;jettySize=auto;html=1;" parent="1" source="MBymmYlp3hh2KS27ztZ8-2" target="MBymmYlp3hh2KS27ztZ8-4" edge="1">
          <mxGeometry relative="1" as="geometry" />
        </mxCell>
        <mxCell id="MBymmYlp3hh2KS27ztZ8-2" value="a" style="rounded=1;whiteSpace=wrap;html=1;fontFamily=Times New Roman;fontSize=24;labelBackgroundColor=none;fillColor=#eeeeee;strokeColor=#36393d;fontStyle=2" parent="1" vertex="1">
          <mxGeometry x="320" y="160" width="80" height="40" as="geometry" />
        </mxCell>
        <mxCell id="MBymmYlp3hh2KS27ztZ8-7" value="" style="edgeStyle=orthogonalEdgeStyle;rounded=0;orthogonalLoop=1;jettySize=auto;html=1;" parent="1" source="MBymmYlp3hh2KS27ztZ8-4" target="MBymmYlp3hh2KS27ztZ8-6" edge="1">
          <mxGeometry relative="1" as="geometry" />
        </mxCell>
        <mxCell id="MBymmYlp3hh2KS27ztZ8-4" value="b" style="rounded=1;whiteSpace=wrap;html=1;fontFamily=Times New Roman;fontSize=24;fillColor=#eeeeee;strokeColor=#36393d;fontStyle=2" parent="1" vertex="1">
          <mxGeometry x="440" y="160" width="80" height="40" as="geometry" />
        </mxCell>
        <mxCell id="MBymmYlp3hh2KS27ztZ8-6" value="e" style="rounded=1;whiteSpace=wrap;html=1;fontFamily=Times New Roman;fontSize=24;fontStyle=2" parent="1" vertex="1">
          <mxGeometry x="560" y="160" width="80" height="40" as="geometry" />
        </mxCell>
        <mxCell id="MBymmYlp3hh2KS27ztZ8-10" value="" style="edgeStyle=orthogonalEdgeStyle;rounded=0;orthogonalLoop=1;jettySize=auto;html=1;" parent="1" source="MBymmYlp3hh2KS27ztZ8-8" target="MBymmYlp3hh2KS27ztZ8-9" edge="1">
          <mxGeometry relative="1" as="geometry" />
        </mxCell>
        <mxCell id="MBymmYlp3hh2KS27ztZ8-8" value="c" style="rounded=1;whiteSpace=wrap;html=1;fontFamily=Times New Roman;fontSize=24;fillColor=#eeeeee;strokeColor=#36393d;fontStyle=2" parent="1" vertex="1">
          <mxGeometry x="320" y="240" width="80" height="40" as="geometry" />
        </mxCell>
        <mxCell id="MBymmYlp3hh2KS27ztZ8-13" style="edgeStyle=orthogonalEdgeStyle;rounded=0;orthogonalLoop=1;jettySize=auto;html=1;entryX=0;entryY=0.5;entryDx=0;entryDy=0;curved=1;" parent="1" source="MBymmYlp3hh2KS27ztZ8-9" target="MBymmYlp3hh2KS27ztZ8-6" edge="1">
          <mxGeometry relative="1" as="geometry" />
        </mxCell>
        <mxCell id="MBymmYlp3hh2KS27ztZ8-9" value="d" style="rounded=1;whiteSpace=wrap;html=1;fontFamily=Times New Roman;fontSize=24;fillColor=#eeeeee;strokeColor=#36393d;fontStyle=2" parent="1" vertex="1">
          <mxGeometry x="440" y="240" width="80" height="40" as="geometry" />
        </mxCell>
        <mxCell id="MBymmYlp3hh2KS27ztZ8-15" value="" style="endArrow=none;dashed=1;html=1;rounded=0;" parent="1" edge="1">
          <mxGeometry width="50" height="50" relative="1" as="geometry">
            <mxPoint x="120" y="220" as="sourcePoint" />
            <mxPoint x="640" y="220" as="targetPoint" />
          </mxGeometry>
        </mxCell>
        <mxCell id="MBymmYlp3hh2KS27ztZ8-16" value="Graphics" style="text;html=1;strokeColor=none;fillColor=none;align=center;verticalAlign=middle;whiteSpace=wrap;rounded=0;fontFamily=Times New Roman;fontSize=16;" parent="1" vertex="1">
          <mxGeometry x="120" y="165" width="60" height="30" as="geometry" />
        </mxCell>
        <mxCell id="MBymmYlp3hh2KS27ztZ8-17" value="Compute" style="text;html=1;strokeColor=none;fillColor=none;align=center;verticalAlign=middle;whiteSpace=wrap;rounded=0;fontFamily=Times New Roman;fontSize=16;" parent="1" vertex="1">
          <mxGeometry x="120" y="240" width="60" height="30" as="geometry" />
        </mxCell>
      </root>
    </mxGraphModel>
  </diagram>
</mxfile>
